<?xml version="1.0" standalone="no"?>
<!DOCTYPE svg PUBLIC "-//W3C//DTD SVG 1.1//EN" "http://www.w3.org/Graphics/SVG/1.1/DTD/svg11.dtd">
<svg xmlns="http://www.w3.org/2000/svg">
<defs >
<font id="SulphurPoint" horiz-adv-x="506" ><font-face
    font-family="Sulphur Point"
    units-per-em="1000"
    panose-1="0 0 8 0 0 0 0 0 0 0"
    ascent="790"
    descent="-210"
    alphabetic="0" />
<glyph unicode=" " glyph-name="space" horiz-adv-x="450" />
<glyph unicode="!" glyph-name="exclam" horiz-adv-x="188" d="M60 141L56 665H134L130 141H60ZM75 -5T63 7T50 39Q50 57 62 70T94 83Q112 83 125 70T138 39Q138 20 125 8T94 -5Q75 -5 63 7Z" />
<glyph unicode="&quot;" glyph-name="quotedbl" horiz-adv-x="284" d="M117 454H46L40 664H123L117 454ZM238 454H167L161 664H244L238 454Z" />
<glyph unicode="#" glyph-name="numbersign" horiz-adv-x="765" d="M535 179V0H445V179H319V0H229V179H50V269H229V395H50V485H229V665H319V485H445V665H535V485H715V395H535V269H715V179H535ZM445 395H319V269H445V395Z" />
<glyph unicode="$" glyph-name="dollar" horiz-adv-x="551" d="M62 107T114 58Q159 14 232 2V-56H320V0Q395 10 445 59Q472 85 486 119T501 192Q501 288 429 334Q384 361 320 372V573Q366 563 390 524Q406 499 411 460H498L500 461Q492 539 450 593Q403 651 320
663V721H232V663Q166 654 124 612Q98 586 85 550T72 473Q72 320 232 291V94Q201 101 175 123Q147 150 140 199H50Q62 107 114 58ZM195 391T173 419T151 481Q151 513 171 538T232 572V383Q195 391 173 419ZM379 268T397 247Q415 223 415 195Q415 160 389 130T320
91V280Q379 268 397 247Z" />
<glyph unicode="%" glyph-name="percent" horiz-adv-x="747" d="M40 551T51 577T82 624Q102 644 128 655T184 666Q213 666 239 655T286 624Q306 604 317 578T328 521Q328 462 286 420Q266 400 240 389T184 377Q155 377 129 388T82 420Q40 462 40 521Q40 551 51
577ZM240 0H139L497 666H598L240 0ZM130 498T145 482T184 466Q207 466 223 482T239 521Q239 544 223 559T184 575Q161 575 146 560T130 521Q130 498 145 482ZM418 171T429 197T460 244Q480 264 506 275T562 286Q592 286 618 275T665 244Q685 224 696 198T707 142Q707
113 696 87T665 40Q645 20 619 9T562 -2Q533 -2 507 9T460 40Q440 60 429 86T418 142Q418 171 429 197ZM507 119T523 104T562 88Q585 88 600 103T616 142Q616 165 601 181T562 197Q539 197 523 181T507 142Q507 119 523 104Z" />
<glyph unicode="&amp;" glyph-name="ampersand" horiz-adv-x="542" d="M374 28Q329 -4 267 -4Q212 -4 162 22T80 99Q40 159 40 226Q40 240 44 266Q51 306 70 339T118 397L106 415Q77 455 77 491Q77 526 90 558T127 615Q151 639 182 652T248 666Q319 666 370 613Q394
588 407 553T420 479H332Q332 523 308 549T248 576Q215 576 191 554T166 502Q166 484 178 466L386 166Q395 192 395 219V254H483V221Q483 143 442 86L502 0H393L374 28ZM169 324Q151 306 140 281T129 228Q129 187 154 149Q183 104 233 91Q253 86 269 86Q300 86
324 100L169 324Z" />
<glyph unicode="&apos;" glyph-name="quotesingle" horiz-adv-x="163" d="M117 454H46L40 664H123L117 454Z" />
<glyph unicode="(" glyph-name="parenleft" horiz-adv-x="191" d="M126 72T155 -121H79Q50 69 50 254Q50 457 84 665H161Q126 454 126 254Q126 72 155 -121Z" />
<glyph unicode=")" glyph-name="parenright" horiz-adv-x="191" d="M65 454T30 665H107Q141 457 141 254Q141 69 112 -121H36Q65 72 65 254Q65 454 30 665Z" />
<glyph unicode="*" glyph-name="asterisk" horiz-adv-x="452" d="M363 335L269 400V315H183V400L89 335L40 406L150 482L40 557L89 629L183 564V665H269V564L363 629L412 557L302 482L412 406L363 335Z" />
<glyph unicode="+" glyph-name="plus" horiz-adv-x="550" d="M319 236V45H231V236H40V324H231V515H319V324H510V236H319Z" />
<glyph unicode="," glyph-name="comma" horiz-adv-x="221" d="M110 -102H37L92 107H175L110 -102Z" />
<glyph unicode="-" glyph-name="hyphen" horiz-adv-x="431" d="M40 242V314H391V242H40Z" />
<glyph unicode="." glyph-name="period" horiz-adv-x="158" d="M45 0T33 12T20 44Q20 62 32 75T64 88Q82 88 95 75T108 44Q108 25 95 13T64 0Q45 0 33 12Z" />
<glyph unicode="/" glyph-name="slash" horiz-adv-x="531" d="M140 0H40L391 666H491L140 0Z" />
<glyph unicode="0" glyph-name="zero" horiz-adv-x="504" d="M234 -5Q195 -5 160 10T97 53Q70 81 55 117T40 193V472Q40 512 55 548T97 612Q124 639 159 654T234 670H270Q309 670 345 655T408 612Q435 585 449 549T464 472V193Q464 152 450 116T408 53Q381 26
345 11T270 -5H234ZM376 472Q376 516 345 548T270 580H234Q191 580 160 548T128 472V193Q128 150 159 118T234 85H270Q314 85 345 117T376 193V472Z" />
<glyph unicode="1" glyph-name="one" horiz-adv-x="314" d="M181 0V528L138 453H40L161 665H264V0H181Z" />
<glyph unicode="2" glyph-name="two" horiz-adv-x="447" d="M299 276T217 255Q162 241 145 202T127 90H375V0H44Q40 36 40 79Q40 303 197 342Q244 352 277 377Q319 410 319 459Q319 506 286 541Q254 575 207 575H56V665H207Q248 665 284 649T348 605Q376 577 391
539T407 459Q407 375 346 320Q299 276 217 255Z" />
<glyph unicode="3" glyph-name="three" horiz-adv-x="413" d="M40 0V90H191Q231 90 258 118T286 188Q286 229 259 259Q233 287 191 287H127V377H191Q232 377 259 406Q286 436 286 476Q286 518 259 546T191 574H40V665H191Q228 665 261 651T320 610Q345 584 359
550T373 476Q373 434 356 397T309 332Q339 305 356 268T373 188Q373 150 359 116T320 55Q295 29 262 15T191 0H40Z" />
<glyph unicode="4" glyph-name="four" horiz-adv-x="510" d="M386 169V-1H299V169H40L244 664H339L170 258H299V359H386V258H470V169H386Z" />
<glyph unicode="5" glyph-name="five" horiz-adv-x="455" d="M55 0V90H215Q261 90 295 124Q328 159 328 206Q328 253 295 288Q259 322 215 322H50V665H383V575H138V412H215Q256 412 292 396T357 351Q384 323 399 285T415 206Q415 164 400 126T357 60Q329 32 293
16T215 0H55Z" />
<glyph unicode="6" glyph-name="six" horiz-adv-x="484" d="M201 -4T164 12T99 57Q71 85 56 123T40 203Q40 246 57 288L215 665H311L203 406Q228 411 242 411Q283 411 320 395T385 350Q413 321 428 283T444 203Q444 161 429 123T385 57Q357 29 320 13T242 -4Q201
-4 164 12ZM218 320T197 311T161 286Q146 270 137 249T128 203Q128 179 137 158T161 121Q176 105 197 96T242 87Q289 87 323 121Q338 136 347 157T356 203Q356 227 347 248T323 286Q289 320 242 320Q218 320 197 311Z" />
<glyph unicode="7" glyph-name="seven" horiz-adv-x="431" d="M242 0H153L273 574H40V665H381L242 0Z" />
<glyph unicode="8" glyph-name="eight" horiz-adv-x="478" d="M282 -5T239 -5Q180 -5 130 27T56 117Q40 155 40 197Q40 228 47 253Q64 319 119 362Q96 386 83 418T69 485Q69 554 116 607Q138 632 171 646T238 660Q289 660 331 632T394 555Q408 519 408 486Q408
452 395 420T358 362Q397 333 417 290T438 202Q438 161 424 124T383 58Q356 28 318 11Q282 -5 239 -5ZM305 543T284 556T239 570Q220 570 205 564Q183 554 169 533T155 487Q155 470 163 452Q175 427 194 415T236 403Q270 403 296 426T322 485Q322 503 315 520Q305
543 284 556ZM126 220T126 200Q126 178 136 153Q150 121 177 103T239 84Q264 84 283 93Q314 108 332 136T351 198Q351 220 341 245Q327 278 299 296T239 314Q206 314 177 295T134 241Q126 220 126 200Z" />
<glyph unicode="9" glyph-name="nine" horiz-adv-x="484" d="M269 0H173L281 259Q256 254 242 254Q201 254 164 270T99 316Q71 345 56 382T40 462Q40 504 55 542T99 608Q127 636 164 652T242 669Q283 669 320 653T385 608Q413 580 428 542T444 462Q444 419 427
377L269 0ZM195 578T162 545Q146 529 137 508T128 462Q128 438 137 417T162 379Q194 345 242 345Q266 345 287 354T323 379Q338 395 347 416T356 462Q356 486 347 507T323 545Q308 560 287 569T242 578Q195 578 162 545Z" />
<glyph unicode=":" glyph-name="colon" horiz-adv-x="188" d="M75 330T63 342T50 374Q50 392 62 405T94 418Q112 418 125 405T138 374Q138 355 125 343T94 330Q75 330 63 342ZM75 0T63 12T50 44Q50 62 62 75T94 88Q112 88 125 75T138 44Q138 25 125 13T94 0Q75 0 63 12Z" />
<glyph unicode=";" glyph-name="semicolon" horiz-adv-x="225" d="M109 327T96 340T82 373Q82 392 95 405T128 419Q147 419 160 406T174 373Q174 354 161 341T128 327Q109 327 96 340ZM101 -102H27L83 121H167L101 -102Z" />
<glyph unicode="&lt;" glyph-name="less" horiz-adv-x="668" d="M40 233V309L628 557V460L182 271L628 91V-6L40 233Z" />
<glyph unicode="=" glyph-name="equal" horiz-adv-x="550" d="M40 321V406H510V321H40ZM40 163V247H510V163H40Z" />
<glyph unicode="&gt;" glyph-name="greater" horiz-adv-x="668" d="M40 -6V91L486 271L40 460V557L628 309V233L40 -6Z" />
<glyph unicode="?" glyph-name="question" horiz-adv-x="509" d="M315 255V152H227V297L325 381Q355 407 368 432T381 488Q381 541 344 580Q307 617 255 617Q229 617 206 607T165 578Q147 559 138 533T128 476H40Q40 525 56 568T103 642Q133 673 172 690T255 708Q299
708 337 691T406 644Q436 613 452 573T469 488Q469 385 382 311L315 255ZM249 -5T234 11T218 50Q218 73 233 89T271 105Q294 105 309 89T325 50Q325 27 310 11T271 -5Q249 -5 234 11Z" />
<glyph unicode="@" glyph-name="at" horiz-adv-x="750" d="M40 400T66 461T139 569Q185 615 246 641T375 667Q443 667 504 641T612 569Q658 522 684 461T710 332Q710 262 694 213T643 131Q624 113 598 103T545 93Q517 93 496 103Q470 114 456 136T441 186V197Q404
174 358 174Q326 174 297 186T245 221Q223 242 211 271T198 334Q198 366 210 395T245 447Q267 469 296 481T358 493Q403 493 441 470V493H531V186Q537 184 544 184Q566 184 582 197Q620 233 620 332Q620 382 601 426T548 505Q514 539 470 557T375 576Q325 576 281
558T202 505Q168 471 150 427T131 332Q131 282 149 238T202 159Q236 125 280 106T375 87Q404 87 440 96V3Q411 -3 375 -3Q307 -3 246 23T139 96Q92 142 66 203T40 332Q40 400 66 461ZM289 305T309 285T358 264Q387 264 407 284T428 334Q428 363 408 383T358 403Q329
403 309 383T289 334Q289 305 309 285Z" />
<glyph unicode="A" glyph-name="A" horiz-adv-x="642" d="M507 0L425 234H217L135 0H40L271 664H371L602 0H507ZM321 535L245 318H396L321 535Z" />
<glyph unicode="B" glyph-name="B" horiz-adv-x="493" d="M301 665T343 640T407 573T430 478Q430 439 416 405T376 343Q412 316 432 276T453 188Q453 137 428 94T361 26T268 0H50V666H245Q301 665 343 640ZM138 576V378H245Q286 378 314 407T342 478Q342 520 315
548T245 576H138ZM138 288V90H268Q309 90 337 118T365 188Q365 230 337 259T268 288H138Z" />
<glyph unicode="C" glyph-name="C" horiz-adv-x="676" d="M306 -4T245 22T138 95Q92 141 66 202T40 332Q40 401 65 462T138 570Q184 616 245 642T374 668Q449 668 516 636T636 541L568 483Q486 577 374 577Q325 577 281 558T202 505Q168 471 149 427T130 332Q130
282 149 238T202 159Q236 125 280 106T374 87Q486 87 568 181L636 123Q582 60 516 28T374 -4Q306 -4 245 22Z" />
<glyph unicode="D" glyph-name="D" horiz-adv-x="591" d="M50 0V666H222Q289 666 349 641T455 569Q500 522 525 462T551 333Q551 265 526 205T455 98Q409 51 349 26T222 0H50ZM140 576V90H222Q270 90 314 109T392 161Q425 195 443 239T462 333Q462 382 444 426T392
505Q359 538 315 557T222 576H140Z" />
<glyph unicode="E" glyph-name="E" horiz-adv-x="464" d="M50 0V665H414V575H137V373H323V291H137V90H414V0H50Z" />
<glyph unicode="F" glyph-name="F" horiz-adv-x="454" d="M136 575V377H323V287H136V0H50V665H414V575H136Z" />
<glyph unicode="G" glyph-name="G" horiz-adv-x="692" d="M550 47T527 35Q454 -4 372 -4Q321 -4 274 11Q212 29 161 71T78 173Q40 242 40 326Q40 352 42 366Q48 421 70 470T129 558Q165 596 211 622T311 658Q341 664 373 664Q456 664 531 622Q587 589 632 537L563
479Q514 533 460 556Q415 573 369 573Q310 573 257 545Q191 510 155 437Q129 387 129 330Q129 298 138 266Q157 188 224 137Q255 113 293 100T371 87Q424 87 470 108T553 169V236H461V326H642V136Q611 92 573 64Q550 47 527 35Z" />
<glyph unicode="H" glyph-name="H" horiz-adv-x="545" d="M408 0V287H138V0H50V665H138V377H408V665H495V0H408Z" />
<glyph unicode="I" glyph-name="I" horiz-adv-x="184" d="M50 0V665H134V0H50Z" />
<glyph unicode="J" glyph-name="J" horiz-adv-x="273" d="M40 90Q84 90 112 118T141 188V665H223V188Q223 149 210 115T172 55Q147 29 113 15T40 0V90Z" />
<glyph unicode="K" glyph-name="K" horiz-adv-x="512" d="M353 0L138 245V0H50V664H138V411L349 664H465L184 327L472 0H353Z" />
<glyph unicode="L" glyph-name="L" horiz-adv-x="376" d="M50 0V665H136V90H336V0H50Z" />
<glyph unicode="M" glyph-name="M" horiz-adv-x="743" d="M603 0V521L405 235H337L140 521V0H50V665H149L371 344L593 665H693V0H603Z" />
<glyph unicode="N" glyph-name="N" horiz-adv-x="585" d="M439 0L139 488V0H50V665H137L447 163V665H535V0H439Z" />
<glyph unicode="O" glyph-name="O" horiz-adv-x="747" d="M305 -5T245 20T138 93Q92 139 66 200T40 330Q40 398 65 458T138 566Q184 612 244 638T373 664Q441 664 502 638T609 566Q655 520 681 459T707 330Q707 262 681 201T609 93Q563 47 502 21T373 -5Q305 -5
245 20ZM324 573T280 555T201 502Q167 468 149 424T130 330Q130 280 149 235T201 156Q235 122 279 104T373 85Q422 85 466 103T545 156Q578 189 597 234T616 330Q616 379 598 423T545 502Q511 536 467 554T373 573Q324 573 280 555Z" />
<glyph unicode="P" glyph-name="P" horiz-adv-x="490" d="M138 231V0H50V665H237Q279 665 318 649T387 602Q417 571 433 532T450 448Q450 404 434 365T387 295Q357 265 318 248T237 231H138ZM138 574V320H237Q289 320 325 358Q362 395 362 448Q362 500 325 537Q288
574 237 574H138Z" />
<glyph unicode="Q" glyph-name="Q" horiz-adv-x="747" d="M373 -2Q306 -2 246 24T138 96Q91 142 66 202T40 331Q40 399 66 461T138 569Q184 615 244 641T373 667Q441 667 502 641T609 569Q655 523 681 461T707 331Q707 260 679 197T601 88H707V-2H373ZM324 576T280
558T201 505Q168 472 149 427T130 331Q130 282 148 238T201 159Q235 125 279 107T373 88Q422 88 466 106T545 159Q579 193 597 237T616 331Q616 381 597 426T545 505Q511 539 467 557T373 576Q324 576 280 558Z" />
<glyph unicode="R" glyph-name="R" horiz-adv-x="487" d="M447 0H329L138 227V0H50V664H221Q265 664 303 648T371 601Q400 570 416 531T432 447Q432 405 418 368T378 302Q352 273 317 255T244 232L447 0ZM138 574V320H221Q246 320 269 330T309 357Q326 375 335
398T345 447Q345 498 309 537Q292 554 269 564T221 574H138Z" />
<glyph unicode="S" glyph-name="S" horiz-adv-x="537" d="M400 499T384 524Q366 551 340 563T272 576Q204 576 177 547Q151 521 151 472Q151 444 159 427T183 398Q207 381 262 376Q318 371 356 361T424 332Q497 286 497 188Q497 150 482 116T440 55Q408 24 365
9T274 -6Q168 -6 105 54Q51 108 40 198L42 199H130Q138 146 166 120Q205 84 271 84Q334 84 371 113T408 188Q408 209 403 224T382 252Q348 278 255 285Q160 293 111 340T62 472Q62 558 115 611Q171 667 271 667Q375 667 433 604Q484 549 495 460H405Q400 499 384
524Z" />
<glyph unicode="T" glyph-name="T" horiz-adv-x="490" d="M289 580V0H201V580H40V665H450V580H289Z" />
<glyph unicode="U" glyph-name="U" horiz-adv-x="564" d="M235 -7T193 11T118 63Q86 96 68 139T50 229V663H135V229Q135 199 146 172T178 124Q198 103 225 92T282 80Q312 80 339 91T387 124Q408 145 419 172T430 229V663H514V229Q514 182 496 139T446 63Q414 30
372 12T282 -7Q235 -7 193 11Z" />
<glyph unicode="V" glyph-name="V" horiz-adv-x="631" d="M366 1H265L35 666H130L316 131L502 666H596L366 1Z" />
<glyph unicode="W" glyph-name="W" horiz-adv-x="926" d="M657 0H568L465 283L366 0H276L35 666H132L320 145L416 418L326 666H423L511 422L612 145L794 666H891L657 0Z" />
<glyph unicode="X" glyph-name="X" horiz-adv-x="578" d="M438 0L289 246L139 0H35L237 332L35 665H139L289 418L439 665H543L341 333L543 0H438Z" />
<glyph unicode="Y" glyph-name="Y" horiz-adv-x="564" d="M327 245V0H238V243L35 665H134L282 357L430 665H529L327 245Z" />
<glyph unicode="Z" glyph-name="Z" horiz-adv-x="532" d="M40 79L378 575H40V665H492V584L155 91H492V0H40V79Z" />
<glyph unicode="[" glyph-name="bracketleft" horiz-adv-x="289" d="M50 -128V664H259V574H132V-38H259V-128H50Z" />
<glyph unicode="\" glyph-name="backslash" horiz-adv-x="531" d="M391 0L40 666H140L491 0H391Z" />
<glyph unicode="]" glyph-name="bracketright" horiz-adv-x="289" d="M30 -128V-38H157V574H30V664H239V-128H30Z" />
<glyph unicode="^" glyph-name="asciicircum" horiz-adv-x="399" d="M269 344L199 542L130 344H40L152 665H247L359 344H269Z" />
<glyph unicode="_" glyph-name="underscore" horiz-adv-x="516" d="M40 -99V-47H476V-99H40Z" />
<glyph unicode="`" glyph-name="grave" horiz-adv-x="600" d="M115 549H48L0 687H79L115 549Z" />
<glyph unicode="a" glyph-name="a" horiz-adv-x="595" d="M455 0V76Q423 39 381 17T292 -5Q240 -5 195 14T114 68Q79 102 60 148T40 246Q40 297 59 343T114 425Q149 460 194 479T292 498Q340 498 382 478T455 422V488H545V0H455ZM259 409T229 397T176 362Q154
340 142 310T129 246Q129 213 141 183T176 131Q198 109 228 97T292 84Q325 84 355 96T407 131Q429 153 441 183T454 246Q454 279 442 309T407 362Q385 384 355 396T292 409Q259 409 229 397Z" />
<glyph unicode="b" glyph-name="b" horiz-adv-x="597" d="M257 -5T214 17T138 77V0H50V664H138V428Q160 459 203 483T304 507Q355 507 402 487T483 432Q518 396 537 350T557 251Q557 199 538 153T483 70Q449 35 402 15T304 -5Q257 -5 214 17ZM271 416T241 404T188
368Q166 345 153 315T140 251Q140 184 188 134Q210 111 240 98T304 85Q337 85 367 98T419 134Q467 184 467 251Q467 284 454 314T419 368Q397 391 367 403T304 416Q271 416 241 404Z" />
<glyph unicode="c" glyph-name="c" horiz-adv-x="530" d="M239 -5T194 14T113 69Q79 103 60 149T40 247Q40 298 59 344T113 425Q148 460 193 479T290 499Q408 499 490 399L412 354Q360 409 290 409Q257 409 228 397T176 362Q154 340 141 310T128 247Q128 214 141
184T176 132Q198 110 227 98T290 85Q360 85 412 140L490 95Q408 -5 290 -5Q239 -5 194 14Z" />
<glyph unicode="d" glyph-name="d" horiz-adv-x="597" d="M459 0V77Q427 39 384 17T293 -5Q240 -5 194 14T114 70Q79 106 60 152T40 251Q40 303 59 349T114 432Q148 468 194 487T293 507Q345 507 387 486T459 428V664H547V0H459ZM260 416T230 404T178 368Q156
345 143 315T130 251Q130 184 178 134Q200 111 230 98T293 85Q326 85 356 98T409 134Q457 184 457 251Q457 284 444 314T409 368Q387 391 357 403T293 416Q260 416 230 404Z" />
<glyph unicode="e" glyph-name="e" horiz-adv-x="584" d="M136 212Q136 188 153 162T194 118Q236 85 292 85Q381 85 437 171L513 126Q474 63 417 29T292 -5Q241 -5 195 14T114 69Q79 104 60 150T40 247Q40 298 59 344T114 426Q148 461 194 480T292 499Q343 499
389 480T470 426Q544 350 544 250Q544 232 541 212H136ZM251 417T215 399T158 352T136 289H448Q448 322 427 351T369 399T292 417Q251 417 215 399Z" />
<glyph unicode="f" glyph-name="f" horiz-adv-x="315" d="M181 416V0H97V416H50V500H98Q100 548 125 586T193 645T285 666V580Q243 582 215 559T184 500H285V416H181Z" />
<glyph unicode="g" glyph-name="g" horiz-adv-x="594" d="M173 -213T86 -107L165 -60Q219 -123 292 -123Q325 -123 355 -110T407 -74Q429 -51 441 -21T454 42V66Q386 -10 291 -10Q240 -10 194 11T113 70Q79 107 60 154T40 251Q40 302 59 347T114 428Q149 462 194
481T291 500Q346 500 389 476T454 422V491H544V42Q544 -10 525 -56T470 -138Q436 -173 390 -193T292 -213Q173 -213 86 -107ZM258 409T228 397T176 361Q154 338 141 308T128 244Q128 211 141 181T176 128Q198 106 228 93T291 80Q324 80 354 93T406 128Q428 150
440 180T453 244Q453 277 441 307T406 361Q384 384 354 396T291 409Q258 409 228 397Z" />
<glyph unicode="h" glyph-name="h" horiz-adv-x="497" d="M359 0V307Q359 354 326 387Q311 402 291 411T249 420Q204 420 171 387Q138 354 138 307V0H50V667H138V465Q186 510 249 510Q289 510 325 495T389 451Q416 423 431 386T447 307V0H359Z" />
<glyph unicode="i" glyph-name="i" horiz-adv-x="192" d="M77 572T64 585T50 618Q50 637 63 650T96 664Q115 664 128 651T142 618Q142 599 129 586T96 572Q77 572 64 585ZM55 0V500H139V0H55Z" />
<glyph unicode="j" glyph-name="j" horiz-adv-x="244" d="M124 573T111 586T97 619Q97 638 110 651T143 665Q162 665 175 652T189 619Q189 600 176 587T143 573Q124 573 111 586ZM0 -123Q46 -123 74 -95T102 -23V500H185V-23Q185 -62 172 -96T133 -157Q108 -183
74 -198T0 -213V-123Z" />
<glyph unicode="k" glyph-name="k" horiz-adv-x="446" d="M290 0L138 185V0H50V665H138V378L274 506H405L168 286L406 0H290Z" />
<glyph unicode="l" glyph-name="l" horiz-adv-x="180" d="M50 0V665H130V0H50Z" />
<glyph unicode="m" glyph-name="m" horiz-adv-x="765" d="M625 0V313Q625 354 597 382T527 410Q487 410 457 382Q428 355 428 314V0H337V314Q337 356 309 382Q279 410 238 410Q198 410 170 382Q140 352 140 311V0H50V488H140V451Q157 472 184 486T238 500Q282
500 318 483T382 434Q409 465 446 482T527 500Q566 500 600 486T660 446Q686 420 700 386T715 313V0H625Z" />
<glyph unicode="n" glyph-name="n" horiz-adv-x="487" d="M359 0V300Q359 345 326 378Q294 410 248 410Q203 410 170 377Q155 362 146 342T137 300V0H50V488H137V447Q156 470 187 485T248 500Q288 500 324 485T389 441Q416 414 431 378T447 300V0H359Z" />
<glyph unicode="o" glyph-name="o" horiz-adv-x="588" d="M242 -5T196 15T115 70Q80 105 60 151T40 248Q40 300 60 347T115 429Q150 464 196 483T293 503Q345 503 392 484T474 429Q509 394 528 347T548 248Q548 197 529 151T474 70Q439 35 392 15T293 -5Q242 -5
196 15ZM226 414T178 366Q155 343 142 312T129 248Q129 215 142 185T178 132Q201 109 230 96T293 83Q326 83 357 96T410 132Q432 155 445 185T458 248Q458 281 445 312T410 366Q388 389 358 401T293 414Q226 414 178 366Z" />
<glyph unicode="p" glyph-name="p" horiz-adv-x="595" d="M246 -9T208 9T139 68V-213H50V488H139V418Q170 456 213 479T303 502Q354 502 400 483T481 427Q516 391 535 345T555 246Q555 194 536 148T481 66Q447 31 401 11T303 -9Q246 -9 208 9ZM270 411T240 399T188
363Q166 340 153 310T140 246Q140 213 153 183T188 130Q210 107 240 94T303 81Q336 81 366 94T418 130Q440 153 452 183T465 246Q465 279 453 309T418 363Q396 386 366 398T303 411Q270 411 240 399Z" />
<glyph unicode="q" glyph-name="q" horiz-adv-x="595" d="M456 -213V67Q426 32 382 12T292 -9Q241 -9 195 11T114 66Q79 102 60 148T40 246Q40 298 59 344T114 427Q148 463 194 482T292 502Q339 502 382 480T456 419V488H545V-213H456ZM259 411T229 399T177 363Q155
340 143 310T130 246Q130 213 142 183T177 130Q199 107 229 94T292 81Q325 81 355 94T407 130Q429 153 442 183T455 246Q455 279 442 309T407 363Q385 386 355 398T292 411Q259 411 229 399Z" />
<glyph unicode="r" glyph-name="r" horiz-adv-x="396" d="M273 404Q249 415 230 415Q190 415 164 387Q136 357 136 318V0H50V318Q50 372 77 417T153 487Q189 504 230 504Q263 504 293 492T356 453L273 404Z" />
<glyph unicode="s" glyph-name="s" horiz-adv-x="432" d="M299 369T289 385Q270 418 214 418Q184 418 168 411Q147 403 137 388T126 355Q126 333 142 315Q159 296 197 295Q264 292 305 279T369 234T392 144Q392 85 347 42Q325 21 296 8T234 -5H219Q139 -5 90 41Q50
78 40 145H129Q134 121 149 106Q172 84 213 84Q224 84 229 85Q264 87 284 104T304 148Q304 184 282 195Q260 206 197 206Q118 206 76 256Q42 294 42 352Q42 365 43 372Q51 437 96 471T217 506Q272 506 313 482Q342 464 363 432Q383 400 389 352L387 351H302Q299
369 289 385Z" />
<glyph unicode="t" glyph-name="t" horiz-adv-x="315" d="M200 410V0H115V410H40V500H115V665H200V500H275V410H200Z" />
<glyph unicode="u" glyph-name="u" horiz-adv-x="487" d="M350 3V45Q330 24 300 10T239 -4Q199 -4 163 11T98 55Q71 83 56 119T40 197V500H128V197Q128 151 161 118Q194 85 239 85Q260 85 281 94T317 118Q350 151 350 197V500H437V3H350Z" />
<glyph unicode="v" glyph-name="v" horiz-adv-x="559" d="M322 0H237L40 500H135L280 135L424 500H519L322 0Z" />
<glyph unicode="w" glyph-name="w" horiz-adv-x="838" d="M598 0H511L420 226L329 0H242L40 500H138L285 135L371 346L309 500H407L554 135L701 500H798L598 0Z" />
<glyph unicode="x" glyph-name="x" horiz-adv-x="492" d="M297 244L446 0H342L246 159L149 0H47L194 244L40 500H142L246 329L349 500H452L297 244Z" />
<glyph unicode="y" glyph-name="y" horiz-adv-x="524" d="M200 -213T152 -184T67 -100L145 -55Q166 -88 195 -105T257 -123Q310 -123 349 -84Q367 -66 376 -42T386 9V44Q363 20 328 6T257 -9Q213 -9 174 7T105 54Q74 84 57 123T40 207V500H128V213Q128 178 145
148T192 99T257 81Q292 81 322 98T369 146T386 213V500H474V9Q474 -36 458 -77T411 -148Q380 -179 341 -196T257 -213Q200 -213 152 -184Z" />
<glyph unicode="z" glyph-name="z" horiz-adv-x="485" d="M40 0V81L321 407H40V496H445V414L165 89H445V0H40Z" />
<glyph unicode="{" glyph-name="braceleft" horiz-adv-x="327" d="M145 278T136 272L134 270Q138 267 144 262T153 254Q166 241 172 224T182 183Q185 158 185 123V-15Q185 -23 190 -28T203 -34H297V-124H203Q161 -124 131 -92Q101 -60 101 -15V126Q101 181 93
192Q88 198 77 205T50 220V321Q66 329 77 336T93 349Q101 360 101 415V556Q101 578 109 598T131 633Q161 665 203 665H297V575H203Q195 575 190 570T185 556V393Q185 359 173 320Q167 300 153 286Q145 278 136 272Z" />
<glyph unicode="|" glyph-name="bar" horiz-adv-x="186" d="M50 0V665H136V0H50Z" />
<glyph unicode="}" glyph-name="braceright" horiz-adv-x="327" d="M239 343T250 336T277 321V220Q261 212 250 205T234 192Q226 181 226 126V-15Q226 -60 196 -92Q166 -124 124 -124H30V-34H124Q132 -34 137 -29T142 -15V123Q142 158 145 183Q149 206 155 223T174
254Q177 257 183 262T193 270L191 272Q182 278 174 286Q160 300 154 320Q142 359 142 393V556Q142 564 137 569T124 575H30V665H124Q166 665 196 633Q210 618 218 598T226 556V415Q226 360 234 349Q239 343 250 336Z" />
<glyph unicode="~" glyph-name="asciitilde" horiz-adv-x="597" d="M381 290T338 303Q319 310 278 329L257 339Q242 347 214 353Q200 355 193 355Q154 355 118 295L40 336Q103 435 192 435H195Q228 435 264 423L292 412Q342 388 366 379Q388 370 408 370Q428 370
443 382Q458 394 481 429L557 389Q496 290 415 290Q381 290 338 303Z" />
<glyph unicode="&#xa0;" glyph-name="uni00A0" horiz-adv-x="450" />
<glyph unicode="&#xa1;" glyph-name="exclamdown" horiz-adv-x="188" d="M112 504T125 492T138 460Q138 442 125 429T94 416Q75 416 63 429T50 460Q50 479 62 491T94 504Q112 504 125 492ZM134 -166H56L60 358H130L134 -166Z" />
<glyph unicode="&#xa2;" glyph-name="cent" horiz-adv-x="531" d="M328 22H239V73Q197 82 161 105T97 161Q70 194 55 235T40 322Q40 367 55 409T97 484Q124 517 160 540T239 572V624H328V575Q377 566 417 543T491 476L413 431Q359 487 290 487Q257 487 228 475T176
439Q154 416 141 386T128 322Q128 289 141 259T176 206Q198 183 228 170T290 157Q359 157 413 213L491 168Q420 83 328 70V22Z" />
<glyph unicode="&#xa3;" glyph-name="sterling" horiz-adv-x="398" d="M40 0V91H102V355H53V446H102V500Q102 538 116 572T155 634Q208 690 283 690H358V599H284Q243 599 216 570Q188 540 188 500V446H296V355H188V91H358V0H40Z" />
<glyph unicode="&#xa4;" glyph-name="currency" horiz-adv-x="586" d="M545 62L482 -1L438 43Q372 -2 293 -2Q217 -2 148 43L104 -1L42 62L86 106Q40 171 40 250Q40 330 86 395L42 439L104 502L148 458Q217 503 293 503Q372 503 438 458L482 502L545 439L501 395Q546
329 546 250Q546 172 501 106L545 62ZM407 372T385 386Q345 414 293 414Q207 414 158 342Q130 304 130 250Q130 164 202 115Q240 87 293 87Q345 87 385 115Q407 129 428 159Q456 199 456 250Q456 304 428 342Q407 372 385 386Z" />
<glyph unicode="&#xa5;" glyph-name="yen" horiz-adv-x="573" d="M242 238H95V329H201L40 665H140L286 359L434 665H533L371 329H478V238H331V185H478V94H331V0H242V94H95V185H242V238Z" />
<glyph unicode="&#xa6;" glyph-name="brokenbar" horiz-adv-x="186" d="M50 388V666H136V388H50ZM50 0V278H136V0H50Z" />
<glyph unicode="&#xa7;" glyph-name="section" horiz-adv-x="430" d="M40 382T69 423Q40 461 40 514Q40 550 54 582T95 635Q141 669 215 669Q270 669 311 645Q340 627 361 595Q372 578 378 560T388 515H298Q295 529 287 546Q277 563 260 571T216 579Q163 579 141
557Q128 541 128 522Q127 518 127 511Q127 491 139 476L148 468Q162 456 195 456Q279 456 324 432Q390 396 390 306Q390 257 361 217Q389 182 389 129Q389 114 388 106Q380 40 335 6T215 -29Q161 -29 120 -4Q89 14 69 45Q58 62 52 80T42 124H131Q134 108 143 94Q163
61 214 61Q265 61 287 83Q300 96 302 118Q305 144 290 164L282 172Q269 184 235 184Q151 184 106 208Q40 244 40 334Q40 382 69 423ZM128 297T150 286Q171 274 235 274Q267 274 288 267Q302 284 302 306Q302 343 280 355Q258 366 195 366Q163 366 142 373Q128 356
128 334Q128 297 150 286Z" />
<glyph unicode="&#xa8;" glyph-name="dieresis" horiz-adv-x="600" d="M25 545T13 557T0 589Q0 607 12 620T44 633Q62 633 75 620T88 589Q88 570 75 558T44 545Q25 545 13 557ZM197 545T185 557T172 589Q172 607 184 620T216 633Q234 633 247 620T260 589Q260
570 247 558T216 545Q197 545 185 557Z" />
<glyph unicode="&#xa9;" glyph-name="copyright" horiz-adv-x="750" d="M307 -4T246 22T139 94Q92 140 66 201T40 331Q40 399 66 460T139 568Q185 614 246 640T375 666Q443 666 504 640T612 568Q658 521 684 460T710 331Q710 263 684 202T612 94Q566 48 505 22T375
-4Q307 -4 246 22ZM326 575T282 556T203 503Q169 469 150 425T131 331Q131 281 150 237T203 158Q237 124 281 105T375 86Q425 86 469 105T548 158Q582 192 601 236T620 331Q620 380 601 424T548 503Q514 537 470 556T375 575Q326 575 282 556ZM348 152T315 166T256
205Q231 230 217 263T203 333Q203 370 217 403T256 461Q282 486 315 499T384 513Q469 513 529 440L464 384Q445 407 426 417T384 427Q347 427 318 400Q290 372 290 333Q290 294 318 266Q348 238 384 238Q407 238 426 248T464 281L529 225Q469 152 384 152Q348 152
315 166Z" />
<glyph unicode="&#xaa;" glyph-name="ordfeminine" horiz-adv-x="356" d="M316 665V391H249V414Q217 394 177 394Q120 394 80 434Q40 474 40 531Q40 559 50 584T80 628Q120 668 177 668Q216 668 249 649V665H316ZM206 461T226 481T247 531Q247 560 227 580T177
601Q148 601 128 581T107 531Q107 502 127 482T177 461Q206 461 226 481Z" />
<glyph unicode="&#xab;" glyph-name="guillemotleft" horiz-adv-x="620" d="M231 87L40 278L222 471H343L164 280L355 87H231ZM456 87L265 278L446 471H568L388 280L580 87H456Z" />
<glyph unicode="&#xac;" glyph-name="logicalnot" horiz-adv-x="581" d="M452 108V248H40V332L541 333V108H452Z" />
<glyph unicode="&#xad;" glyph-name="uni00AD" horiz-adv-x="431" d="M40 242V314H391V242H40Z" />
<glyph unicode="&#xae;" glyph-name="registered" horiz-adv-x="540" d="M223 209T182 227T108 277Q76 309 58 350T40 439Q40 485 58 527T108 602Q140 634 181 651T270 669Q317 669 359 652T433 602Q465 570 482 528T500 439Q500 392 483 351T433 277Q401 245
359 227T270 209Q223 209 182 227ZM238 599T209 587T157 552Q135 530 123 501T110 439Q110 406 122 377T157 326Q179 304 208 291T270 278Q302 278 331 291T383 326Q405 347 417 376T430 439Q430 471 418 500T383 552Q361 574 332 586T270 599Q238 599 209 587ZM293
341L257 384V341H205V558H272Q304 558 329 535Q340 524 346 510T352 479Q352 456 341 438T312 409L372 341H293ZM257 507V449H271Q285 449 293 457T301 479Q301 491 293 499T271 507H257Z" />
<glyph unicode="&#xaf;" glyph-name="overscore" horiz-adv-x="600" d="M0 565V620H280V565H0Z" />
<glyph unicode="&#xb0;" glyph-name="degree" horiz-adv-x="355" d="M120 428T80 468Q40 508 40 565Q40 593 50 618T80 662Q120 702 177 702Q205 702 230 692T275 662Q294 643 304 618T315 565Q315 510 275 468Q256 449 231 439T177 428Q120 428 80 468ZM148 635T128
615T107 565Q107 536 127 516T177 495Q206 495 226 515T247 565Q247 594 227 614T177 635Q148 635 128 615Z" />
<glyph unicode="&#xb1;" glyph-name="plusminus" horiz-adv-x="550" d="M319 309V191H231V309H40V398H231V516H319V398H510V309H319ZM40 75V164H510V75H40Z" />
<glyph unicode="&#xb2;" glyph-name="uni00B2" horiz-adv-x="308" d="M207 401T150 386Q112 376 100 349T88 272H259V210H30Q27 237 27 264Q27 418 136 446Q167 452 191 470Q220 492 220 527Q220 560 197 583Q187 594 173 600T143 607H42V669H143Q200 669 240
627Q259 608 270 582T281 527Q281 469 239 431Q207 401 150 386Z" />
<glyph unicode="&#xb3;" glyph-name="uni00B3" horiz-adv-x="285" d="M28 210V272H132Q159 272 178 291T197 340Q197 368 179 389Q160 408 132 408H88V470H132Q159 470 179 490Q197 511 197 538Q197 567 178 586T132 606H28V669H132Q183 669 221 631Q257 593 257
538Q257 509 246 483T213 439Q234 421 245 395T257 340Q257 313 248 289T221 248Q185 210 132 210H28Z" />
<glyph unicode="&#xb4;" glyph-name="acute" horiz-adv-x="600" d="M67 549H0L37 687H115L67 549Z" />
<glyph unicode="&#xb5;" glyph-name="uni00B5" horiz-adv-x="487" d="M437 500V3H350V45Q330 24 300 10T239 -4Q180 -4 128 30V-85H40V500H128V197Q128 151 161 118Q194 85 239 85Q260 85 281 94T317 118Q350 151 350 197V500H437Z" />
<glyph unicode="&#xb6;" glyph-name="paragraph" horiz-adv-x="512" d="M234 0V339H199Q167 339 138 352T87 387Q65 409 53 439T40 503Q40 536 52 565T87 617Q109 639 138 652T199 665H322V0H234ZM374 0V665H462V0H374Z" />
<glyph unicode="&#xb7;" glyph-name="middot" horiz-adv-x="188" d="M75 264T63 276T50 308Q50 326 62 339T94 352Q112 352 125 339T138 308Q138 289 125 277T94 264Q75 264 63 276Z" />
<glyph unicode="&#xb8;" glyph-name="cedilla" horiz-adv-x="600" d="M34 -205T0 -177L39 -133Q49 -141 52 -142Q59 -146 65 -146Q78 -146 87 -136T97 -112Q97 -98 88 -88T65 -78Q60 -78 46 -83L26 -33L42 10H103L89 -23Q119 -34 136 -57T154 -112Q154 -150 128
-178Q116 -190 100 -197T65 -205Q34 -205 0 -177Z" />
<glyph unicode="&#xb9;" glyph-name="uni00B9" horiz-adv-x="210" d="M119 210V574L89 523H21L105 669H176V210H119Z" />
<glyph unicode="&#xba;" glyph-name="ordmasculine" horiz-adv-x="355" d="M120 394T80 434Q40 474 40 531Q40 559 50 584T80 628Q120 668 177 668Q205 668 230 658T275 628Q294 609 304 584T315 531Q315 474 275 434Q256 415 231 405T177 394Q120 394 80 434ZM148
601T128 581T107 531Q107 502 127 482T177 461Q206 461 226 481T247 531Q247 560 227 580T177 601Q148 601 128 581Z" />
<glyph unicode="&#xbb;" glyph-name="guillemotright" horiz-adv-x="620" d="M232 280L52 471H174L355 278L164 87H40L232 280ZM456 280L277 471H398L580 278L389 87H265L456 280Z" />
<glyph unicode="&#xbc;" glyph-name="onequarter" horiz-adv-x="845" d="M119 210V574L89 523H21L105 669H176V210H119ZM253 0H191L541 666H603L253 0ZM753 117V-1H693V117H514L655 458H721L604 178H693V248H753V178H811V117H753Z" />
<glyph unicode="&#xbd;" glyph-name="onehalf" horiz-adv-x="876" d="M119 210V574L89 523H21L105 669H176V210H119ZM242 0H180L530 666H592L242 0ZM768 191T711 176Q673 166 661 139T649 62H820V0H591Q588 27 588 54Q588 208 697 236Q728 242 752 260Q781 282
781 317Q781 350 758 373Q748 384 734 390T704 397H603V459H704Q761 459 801 417Q820 398 831 372T842 317Q842 259 800 221Q768 191 711 176Z" />
<glyph unicode="&#xbe;" glyph-name="threequarters" horiz-adv-x="882" d="M28 210V272H132Q159 272 178 291T197 340Q197 368 179 389Q160 408 132 408H88V470H132Q159 470 179 490Q197 511 197 538Q197 567 178 586T132 606H28V669H132Q183 669 221 631Q257
593 257 538Q257 509 246 483T213 439Q234 421 245 395T257 340Q257 313 248 289T221 248Q185 210 132 210H28ZM302 0H240L590 666H652L302 0ZM796 117V-1H736V117H557L698 458H764L647 178H736V248H796V178H854V117H796Z" />
<glyph unicode="&#xbf;" glyph-name="questiondown" horiz-adv-x="509" d="M215 390T200 406T184 445Q184 468 199 484T238 500Q260 500 275 484T291 445Q291 422 276 406T238 390Q215 390 200 406ZM210 -208T172 -191T103 -144Q73 -113 57 -73T40 12Q40 116 127
189L194 245V348H282V203L184 119Q154 93 141 68T128 12Q128 -42 165 -79Q203 -117 254 -117Q310 -117 344 -78Q381 -38 381 24H469Q469 -25 453 -68T406 -142Q376 -173 337 -190T254 -208Q210 -208 172 -191Z" />
<glyph unicode="&#xc0;" glyph-name="Agrave" horiz-adv-x="642" d="M507 0L425 234H217L135 0H40L271 664H371L602 0H507ZM321 535L245 318H396L321 535ZM363 714H296L248 852H327L363 714Z" />
<glyph unicode="&#xc1;" glyph-name="Aacute" horiz-adv-x="642" d="M507 0L425 234H217L135 0H40L271 664H371L602 0H507ZM321 535L245 318H396L321 535ZM347 714H280L317 852H395L347 714Z" />
<glyph unicode="&#xc2;" glyph-name="Acircumflex" horiz-adv-x="642" d="M507 0L425 234H217L135 0H40L271 664H371L602 0H507ZM321 535L245 318H396L321 535ZM321 760L270 710H189L322 841L449 710H370L321 760Z" />
<glyph unicode="&#xc3;" glyph-name="Atilde" horiz-adv-x="642" d="M507 0L425 234H217L135 0H40L271 664H371L602 0H507ZM321 535L245 318H396L321 535ZM478 785Q456 750 433 734T383 717Q366 717 350 723T312 740Q294 749 282 753T258 759Q238 759 219 726L215
717L170 758Q181 778 197 793Q223 820 257 820Q277 820 294 814T338 795Q357 785 367 782T387 779Q401 780 412 790T439 822L478 785Z" />
<glyph unicode="&#xc4;" glyph-name="Adieresis" horiz-adv-x="642" d="M507 0L425 234H217L135 0H40L271 664H371L602 0H507ZM321 535L245 318H396L321 535ZM216 710T204 722T191 754Q191 772 203 785T235 798Q253 798 266 785T279 754Q279 735 266 723T235 710Q216
710 204 722ZM388 710T376 722T363 754Q363 772 375 785T407 798Q425 798 438 785T451 754Q451 735 438 723T407 710Q388 710 376 722Z" />
<glyph unicode="&#xc5;" glyph-name="Aring" horiz-adv-x="642" d="M507 0L425 234H217L135 0H40L271 664H371L602 0H507ZM321 535L245 318H396L321 535ZM347 711T321 711Q274 711 245 752Q230 776 230 802Q230 824 241 844T271 877Q293 892 323 892Q334 892 339
891Q376 883 396 852Q411 828 411 800Q411 789 410 784Q406 766 396 751T371 726Q347 711 321 711ZM304 844T293 835T280 811Q279 808 279 803Q279 787 291 774T321 761Q337 761 350 773T363 802Q363 818 351 831T321 844Q304 844 293 835Z" />
<glyph unicode="&#xc6;" glyph-name="AE" horiz-adv-x="806" d="M489 574V372H675V290H489V89H766V-1H402V234H217L135 0H40L271 664H766V574H489ZM402 322V576H335L247 322H402Z" />
<glyph unicode="&#xc7;" glyph-name="Ccedilla" horiz-adv-x="676" d="M486 87T568 181L636 123Q587 66 526 34T397 -3L389 -23Q419 -34 436 -57T454 -112Q454 -150 428 -178Q416 -190 400 -197T365 -205Q334 -205 300 -177L339 -133Q349 -141 352 -142Q359 -146
365 -146Q378 -146 387 -136T397 -112Q397 -98 388 -88T365 -78Q360 -78 346 -83L326 -33L338 -2Q280 5 229 30T138 95Q92 141 66 202T40 332Q40 401 65 462T138 570Q184 616 245 642T374 668Q449 668 516 636T636 541L568 483Q486 577 374 577Q325 577 281 558T202
505Q168 471 149 427T130 332Q130 282 149 238T202 159Q236 125 280 106T374 87Q486 87 568 181Z" />
<glyph unicode="&#xc8;" glyph-name="Egrave" horiz-adv-x="464" d="M50 0V665H414V575H137V373H323V291H137V90H414V0H50ZM274 714H207L159 852H238L274 714Z" />
<glyph unicode="&#xc9;" glyph-name="Eacute" horiz-adv-x="464" d="M50 0V665H414V575H137V373H323V291H137V90H414V0H50ZM258 714H191L228 852H306L258 714Z" />
<glyph unicode="&#xca;" glyph-name="Ecircumflex" horiz-adv-x="464" d="M50 0V665H414V575H137V373H323V291H137V90H414V0H50ZM232 760L181 710H100L233 841L360 710H281L232 760Z" />
<glyph unicode="&#xcb;" glyph-name="Edieresis" horiz-adv-x="464" d="M50 0V665H414V575H137V373H323V291H137V90H414V0H50ZM127 710T115 722T102 754Q102 772 114 785T146 798Q164 798 177 785T190 754Q190 735 177 723T146 710Q127 710 115 722ZM299 710T287
722T274 754Q274 772 286 785T318 798Q336 798 349 785T362 754Q362 735 349 723T318 710Q299 710 287 722Z" />
<glyph unicode="&#xcc;" glyph-name="Igrave" horiz-adv-x="205" d="M71 0V665H155V0H71ZM155 714H88L40 852H119L155 714Z" />
<glyph unicode="&#xcd;" glyph-name="Iacute" horiz-adv-x="214" d="M50 0V665H134V0H50ZM126 714H59L96 852H174L126 714Z" />
<glyph unicode="&#xce;" glyph-name="Icircumflex" horiz-adv-x="340" d="M128 0V665H212V0H128ZM172 760L121 710H40L173 841L300 710H221L172 760Z" />
<glyph unicode="&#xcf;" glyph-name="Idieresis" horiz-adv-x="340" d="M128 0V665H212V0H128ZM65 710T53 722T40 754Q40 772 52 785T84 798Q102 798 115 785T128 754Q128 735 115 723T84 710Q65 710 53 722ZM237 710T225 722T212 754Q212 772 224 785T256 798Q274
798 287 785T300 754Q300 735 287 723T256 710Q237 710 225 722Z" />
<glyph unicode="&#xd0;" glyph-name="Eth" horiz-adv-x="632" d="M541 522T566 462T592 333Q592 265 567 205T496 98Q450 51 390 26T263 0H91V303H40V363H91V666H263Q330 666 390 641T496 569Q541 522 566 462ZM466 195T484 239T503 333Q503 382 485 426T433 505Q400
538 356 557T263 576H181V363H465V303H181V90H263Q311 90 355 109T433 161Q466 195 484 239Z" />
<glyph unicode="&#xd1;" glyph-name="Ntilde" horiz-adv-x="585" d="M439 0L139 488V0H50V665H137L447 163V665H535V0H439ZM450 785Q428 750 405 734T355 717Q338 717 322 723T284 740Q266 749 254 753T230 759Q210 759 191 726L187 717L142 758Q153 778 169 793Q195
820 229 820Q249 820 266 814T310 795Q329 785 339 782T359 779Q373 780 384 790T411 822L450 785Z" />
<glyph unicode="&#xd2;" glyph-name="Ograve" horiz-adv-x="747" d="M305 -5T245 20T138 93Q92 139 66 200T40 330Q40 398 65 458T138 566Q184 612 244 638T373 664Q441 664 502 638T609 566Q655 520 681 459T707 330Q707 262 681 201T609 93Q563 47 502 21T373
-5Q305 -5 245 20ZM324 573T280 555T201 502Q167 468 149 424T130 330Q130 280 149 235T201 156Q235 122 279 104T373 85Q422 85 466 103T545 156Q578 189 597 234T616 330Q616 379 598 423T545 502Q511 536 467 554T373 573Q324 573 280 555ZM416 714H349L301
852H380L416 714Z" />
<glyph unicode="&#xd3;" glyph-name="Oacute" horiz-adv-x="747" d="M305 -5T245 20T138 93Q92 139 66 200T40 330Q40 398 65 458T138 566Q184 612 244 638T373 664Q441 664 502 638T609 566Q655 520 681 459T707 330Q707 262 681 201T609 93Q563 47 502 21T373
-5Q305 -5 245 20ZM324 573T280 555T201 502Q167 468 149 424T130 330Q130 280 149 235T201 156Q235 122 279 104T373 85Q422 85 466 103T545 156Q578 189 597 234T616 330Q616 379 598 423T545 502Q511 536 467 554T373 573Q324 573 280 555ZM400 714H333L370
852H448L400 714Z" />
<glyph unicode="&#xd4;" glyph-name="Ocircumflex" horiz-adv-x="747" d="M305 -5T245 20T138 93Q92 139 66 200T40 330Q40 398 65 458T138 566Q184 612 244 638T373 664Q441 664 502 638T609 566Q655 520 681 459T707 330Q707 262 681 201T609 93Q563 47 502
21T373 -5Q305 -5 245 20ZM324 573T280 555T201 502Q167 468 149 424T130 330Q130 280 149 235T201 156Q235 122 279 104T373 85Q422 85 466 103T545 156Q578 189 597 234T616 330Q616 379 598 423T545 502Q511 536 467 554T373 573Q324 573 280 555ZM374 760L323
710H242L375 841L502 710H423L374 760Z" />
<glyph unicode="&#xd5;" glyph-name="Otilde" horiz-adv-x="747" d="M305 -5T245 20T138 93Q92 139 66 200T40 330Q40 398 65 458T138 566Q184 612 244 638T373 664Q441 664 502 638T609 566Q655 520 681 459T707 330Q707 262 681 201T609 93Q563 47 502 21T373
-5Q305 -5 245 20ZM324 573T280 555T201 502Q167 468 149 424T130 330Q130 280 149 235T201 156Q235 122 279 104T373 85Q422 85 466 103T545 156Q578 189 597 234T616 330Q616 379 598 423T545 502Q511 536 467 554T373 573Q324 573 280 555ZM531 785Q509 750
486 734T436 717Q419 717 403 723T365 740Q347 749 335 753T311 759Q291 759 272 726L268 717L223 758Q234 778 250 793Q276 820 310 820Q330 820 347 814T391 795Q410 785 420 782T440 779Q454 780 465 790T492 822L531 785Z" />
<glyph unicode="&#xd6;" glyph-name="Odieresis" horiz-adv-x="747" d="M305 -5T245 20T138 93Q92 139 66 200T40 330Q40 398 65 458T138 566Q184 612 244 638T373 664Q441 664 502 638T609 566Q655 520 681 459T707 330Q707 262 681 201T609 93Q563 47 502 21T373
-5Q305 -5 245 20ZM324 573T280 555T201 502Q167 468 149 424T130 330Q130 280 149 235T201 156Q235 122 279 104T373 85Q422 85 466 103T545 156Q578 189 597 234T616 330Q616 379 598 423T545 502Q511 536 467 554T373 573Q324 573 280 555ZM269 710T257 722T244
754Q244 772 256 785T288 798Q306 798 319 785T332 754Q332 735 319 723T288 710Q269 710 257 722ZM441 710T429 722T416 754Q416 772 428 785T460 798Q478 798 491 785T504 754Q504 735 491 723T460 710Q441 710 429 722Z" />
<glyph unicode="&#xd7;" glyph-name="multiply" horiz-adv-x="471" d="M369 85L236 218L103 85L40 147L173 280L40 413L103 475L236 342L369 475L431 413L298 280L431 147L369 85Z" />
<glyph unicode="&#xd8;" glyph-name="Oslash" horiz-adv-x="747" d="M655 520T681 459T707 330Q707 262 681 201T609 93Q563 47 502 21T373 -5Q310 -5 248 19L238 0H158L186 53Q159 72 138 93Q92 139 66 200T40 330Q40 398 65 458T138 566Q184 612 244 638T373
664Q438 664 496 641L509 666H589L558 608Q587 589 609 566Q655 520 681 459ZM215 142T228 133L453 560Q412 573 373 573Q324 573 280 555T201 502Q167 468 149 424T130 330Q130 280 149 235T201 156Q215 142 228 133ZM578 189T597 234T616 330Q616 379 598 423T545
502Q536 511 516 527L290 99Q330 85 373 85Q422 85 466 103T545 156Q578 189 597 234Z" />
<glyph unicode="&#xd9;" glyph-name="Ugrave" horiz-adv-x="564" d="M235 -7T193 11T118 63Q86 96 68 139T50 229V663H135V229Q135 199 146 172T178 124Q198 103 225 92T282 80Q312 80 339 91T387 124Q408 145 419 172T430 229V663H514V229Q514 182 496 139T446
63Q414 30 372 12T282 -7Q235 -7 193 11ZM324 714H257L209 852H288L324 714Z" />
<glyph unicode="&#xda;" glyph-name="Uacute" horiz-adv-x="564" d="M235 -7T193 11T118 63Q86 96 68 139T50 229V663H135V229Q135 199 146 172T178 124Q198 103 225 92T282 80Q312 80 339 91T387 124Q408 145 419 172T430 229V663H514V229Q514 182 496 139T446
63Q414 30 372 12T282 -7Q235 -7 193 11ZM308 714H241L278 852H356L308 714Z" />
<glyph unicode="&#xdb;" glyph-name="Ucircumflex" horiz-adv-x="564" d="M235 -7T193 11T118 63Q86 96 68 139T50 229V663H135V229Q135 199 146 172T178 124Q198 103 225 92T282 80Q312 80 339 91T387 124Q408 145 419 172T430 229V663H514V229Q514 182 496 139T446
63Q414 30 372 12T282 -7Q235 -7 193 11ZM282 760L231 710H150L283 841L410 710H331L282 760Z" />
<glyph unicode="&#xdc;" glyph-name="Udieresis" horiz-adv-x="564" d="M235 -7T193 11T118 63Q86 96 68 139T50 229V663H135V229Q135 199 146 172T178 124Q198 103 225 92T282 80Q312 80 339 91T387 124Q408 145 419 172T430 229V663H514V229Q514 182 496 139T446
63Q414 30 372 12T282 -7Q235 -7 193 11ZM177 710T165 722T152 754Q152 772 164 785T196 798Q214 798 227 785T240 754Q240 735 227 723T196 710Q177 710 165 722ZM349 710T337 722T324 754Q324 772 336 785T368 798Q386 798 399 785T412 754Q412 735 399 723T368
710Q349 710 337 722Z" />
<glyph unicode="&#xdd;" glyph-name="Yacute" horiz-adv-x="564" d="M327 245V0H238V243L35 665H134L282 357L430 665H529L327 245ZM308 714H241L278 852H356L308 714Z" />
<glyph unicode="&#xde;" glyph-name="Thorn" horiz-adv-x="490" d="M417 412T433 373T450 288Q450 244 434 205T387 135Q357 105 318 88T237 71H138V-109H50V658H138V505H237Q279 505 318 489T387 442Q417 412 433 373ZM362 235T362 288Q362 340 325 377Q288 414
237 414H138V160H237Q287 160 325 198Q362 235 362 288Z" />
<glyph unicode="&#xdf;" glyph-name="germandbls" horiz-adv-x="493" d="M294 667T322 655T376 615Q401 587 415 552T430 478Q430 439 416 405T376 343Q412 316 432 276T453 188Q453 150 439 116T399 55Q374 29 340 15T268 0H220V89L268 90Q309 91 337 119T365
188Q365 229 337 259Q324 273 306 280T268 288H138V0H50V666L245 667Q294 667 322 655ZM138 576V378H245Q285 378 314 407Q342 435 342 478Q342 520 314 548Q286 576 245 576H138Z" />
<glyph unicode="&#xe0;" glyph-name="agrave" horiz-adv-x="595" d="M455 0V76Q423 39 381 17T292 -5Q240 -5 195 14T114 68Q79 102 60 148T40 246Q40 297 59 343T114 425Q149 460 194 479T292 498Q340 498 382 478T455 422V488H545V0H455ZM259 409T229 397T176
362Q154 340 142 310T129 246Q129 213 141 183T176 131Q198 109 228 97T292 84Q325 84 355 96T407 131Q429 153 441 183T454 246Q454 279 442 309T407 362Q385 384 355 396T292 409Q259 409 229 397ZM340 549H273L225 687H304L340 549Z" />
<glyph unicode="&#xe1;" glyph-name="aacute" horiz-adv-x="595" d="M455 0V76Q423 39 381 17T292 -5Q240 -5 195 14T114 68Q79 102 60 148T40 246Q40 297 59 343T114 425Q149 460 194 479T292 498Q340 498 382 478T455 422V488H545V0H455ZM259 409T229 397T176
362Q154 340 142 310T129 246Q129 213 141 183T176 131Q198 109 228 97T292 84Q325 84 355 96T407 131Q429 153 441 183T454 246Q454 279 442 309T407 362Q385 384 355 396T292 409Q259 409 229 397ZM324 549H257L294 687H372L324 549Z" />
<glyph unicode="&#xe2;" glyph-name="acircumflex" horiz-adv-x="595" d="M455 0V76Q423 39 381 17T292 -5Q240 -5 195 14T114 68Q79 102 60 148T40 246Q40 297 59 343T114 425Q149 460 194 479T292 498Q340 498 382 478T455 422V488H545V0H455ZM259 409T229 397T176
362Q154 340 142 310T129 246Q129 213 141 183T176 131Q198 109 228 97T292 84Q325 84 355 96T407 131Q429 153 441 183T454 246Q454 279 442 309T407 362Q385 384 355 396T292 409Q259 409 229 397ZM298 595L247 545H166L299 676L426 545H347L298 595Z" />
<glyph unicode="&#xe3;" glyph-name="atilde" horiz-adv-x="595" d="M455 0V76Q423 39 381 17T292 -5Q240 -5 195 14T114 68Q79 102 60 148T40 246Q40 297 59 343T114 425Q149 460 194 479T292 498Q340 498 382 478T455 422V488H545V0H455ZM259 409T229 397T176
362Q154 340 142 310T129 246Q129 213 141 183T176 131Q198 109 228 97T292 84Q325 84 355 96T407 131Q429 153 441 183T454 246Q454 279 442 309T407 362Q385 384 355 396T292 409Q259 409 229 397ZM455 620Q433 585 410 569T360 552Q343 552 327 558T289 575Q271
584 259 588T235 594Q215 594 196 561L192 552L147 593Q158 613 174 628Q200 655 234 655Q254 655 271 649T315 630Q334 620 344 617T364 614Q378 615 389 625T416 657L455 620Z" />
<glyph unicode="&#xe4;" glyph-name="adieresis" horiz-adv-x="595" d="M455 0V76Q423 39 381 17T292 -5Q240 -5 195 14T114 68Q79 102 60 148T40 246Q40 297 59 343T114 425Q149 460 194 479T292 498Q340 498 382 478T455 422V488H545V0H455ZM259 409T229 397T176
362Q154 340 142 310T129 246Q129 213 141 183T176 131Q198 109 228 97T292 84Q325 84 355 96T407 131Q429 153 441 183T454 246Q454 279 442 309T407 362Q385 384 355 396T292 409Q259 409 229 397ZM193 545T181 557T168 589Q168 607 180 620T212 633Q230 633
243 620T256 589Q256 570 243 558T212 545Q193 545 181 557ZM365 545T353 557T340 589Q340 607 352 620T384 633Q402 633 415 620T428 589Q428 570 415 558T384 545Q365 545 353 557Z" />
<glyph unicode="&#xe5;" glyph-name="aring" horiz-adv-x="595" d="M455 0V76Q423 39 381 17T292 -5Q240 -5 195 14T114 68Q79 102 60 148T40 246Q40 297 59 343T114 425Q149 460 194 479T292 498Q340 498 382 478T455 422V488H545V0H455ZM259 409T229 397T176
362Q154 340 142 310T129 246Q129 213 141 183T176 131Q198 109 228 97T292 84Q325 84 355 96T407 131Q429 153 441 183T454 246Q454 279 442 309T407 362Q385 384 355 396T292 409Q259 409 229 397ZM324 546T298 546Q251 546 222 587Q207 611 207 637Q207 659
218 679T248 712Q270 727 300 727Q311 727 316 726Q353 718 373 687Q388 663 388 635Q388 624 387 619Q383 601 373 586T348 561Q324 546 298 546ZM281 679T270 670T257 646Q256 643 256 638Q256 622 268 609T298 596Q314 596 327 608T340 637Q340 653 328 666T298
679Q281 679 270 670Z" />
<glyph unicode="&#xe6;" glyph-name="ae" horiz-adv-x="999" d="M959 350T959 250Q959 232 956 212H551Q551 188 568 162T609 118Q651 85 707 85Q796 85 852 171L928 126Q889 63 832 29T707 -5Q662 -5 621 10T545 54V0H455V76Q423 39 381 17T292 -5Q240 -5 195
14T114 68Q79 102 60 148T40 246Q40 297 59 343T114 425Q149 460 194 479T292 498Q340 498 382 478T455 422V488H545V441Q578 469 620 484T707 499Q758 499 804 480T885 426Q959 350 959 250ZM863 289Q863 322 842 351T784 399T707 417Q666 417 630 399T573 352T551
289H863ZM429 153T441 183T454 246Q454 279 442 309T407 362Q385 384 355 396T292 409Q259 409 229 397T176 362Q154 340 142 310T129 246Q129 213 141 183T176 131Q198 109 228 97T292 84Q325 84 355 96T407 131Q429 153 441 183Z" />
<glyph unicode="&#xe7;" glyph-name="ccedilla" horiz-adv-x="530" d="M360 85T412 140L490 95Q415 4 311 -4L303 -23Q333 -34 350 -57T368 -112Q368 -150 342 -178Q330 -190 314 -197T279 -205Q248 -205 214 -177L253 -133Q263 -141 266 -142Q273 -146 279 -146Q292
-146 301 -136T311 -112Q311 -98 302 -88T279 -78Q274 -78 260 -83L240 -33L252 -2Q212 5 176 23T113 69Q79 103 60 149T40 247Q40 298 59 344T113 425Q148 460 193 479T290 499Q408 499 490 399L412 354Q360 409 290 409Q257 409 228 397T176 362Q154 340 141
310T128 247Q128 214 141 184T176 132Q198 110 227 98T290 85Q360 85 412 140Z" />
<glyph unicode="&#xe8;" glyph-name="egrave" horiz-adv-x="584" d="M136 212Q136 188 153 162T194 118Q236 85 292 85Q381 85 437 171L513 126Q474 63 417 29T292 -5Q241 -5 195 14T114 69Q79 104 60 150T40 247Q40 298 59 344T114 426Q148 461 194 480T292 499Q343
499 389 480T470 426Q544 350 544 250Q544 232 541 212H136ZM251 417T215 399T158 352T136 289H448Q448 322 427 351T369 399T292 417Q251 417 215 399ZM334 548H267L219 686H298L334 548Z" />
<glyph unicode="&#xe9;" glyph-name="eacute" horiz-adv-x="584" d="M136 212Q136 188 153 162T194 118Q236 85 292 85Q381 85 437 171L513 126Q474 63 417 29T292 -5Q241 -5 195 14T114 69Q79 104 60 150T40 247Q40 298 59 344T114 426Q148 461 194 480T292 499Q343
499 389 480T470 426Q544 350 544 250Q544 232 541 212H136ZM251 417T215 399T158 352T136 289H448Q448 322 427 351T369 399T292 417Q251 417 215 399ZM318 548H251L288 686H366L318 548Z" />
<glyph unicode="&#xea;" glyph-name="ecircumflex" horiz-adv-x="584" d="M136 212Q136 188 153 162T194 118Q236 85 292 85Q381 85 437 171L513 126Q474 63 417 29T292 -5Q241 -5 195 14T114 69Q79 104 60 150T40 247Q40 298 59 344T114 426Q148 461 194 480T292
499Q343 499 389 480T470 426Q544 350 544 250Q544 232 541 212H136ZM251 417T215 399T158 352T136 289H448Q448 322 427 351T369 399T292 417Q251 417 215 399ZM292 594L241 544H160L293 675L420 544H341L292 594Z" />
<glyph unicode="&#xeb;" glyph-name="edieresis" horiz-adv-x="584" d="M136 212Q136 188 153 162T194 118Q236 85 292 85Q381 85 437 171L513 126Q474 63 417 29T292 -5Q241 -5 195 14T114 69Q79 104 60 150T40 247Q40 298 59 344T114 426Q148 461 194 480T292
499Q343 499 389 480T470 426Q544 350 544 250Q544 232 541 212H136ZM251 417T215 399T158 352T136 289H448Q448 322 427 351T369 399T292 417Q251 417 215 399ZM187 544T175 556T162 588Q162 606 174 619T206 632Q224 632 237 619T250 588Q250 569 237 557T206
544Q187 544 175 556ZM359 544T347 556T334 588Q334 606 346 619T378 632Q396 632 409 619T422 588Q422 569 409 557T378 544Q359 544 347 556Z" />
<glyph unicode="&#xec;" glyph-name="igrave" horiz-adv-x="202" d="M78 0V500H162V0H78ZM147 549H80L32 687H111L147 549Z" />
<glyph unicode="&#xed;" glyph-name="iacute" horiz-adv-x="204" d="M296 0V500H380V0H296ZM116 549H49L86 687H164L116 549Z" />
<glyph unicode="&#xee;" glyph-name="icircumflex" horiz-adv-x="292" d="M105 0V500H189V0H105ZM132 595L81 545H0L133 676L260 545H181L132 595Z" />
<glyph unicode="&#xef;" glyph-name="idieresis" horiz-adv-x="340" d="M128 0V500H212V0H128ZM65 545T53 557T40 589Q40 607 52 620T84 633Q102 633 115 620T128 589Q128 570 115 558T84 545Q65 545 53 557ZM237 545T225 557T212 589Q212 607 224 620T256 633Q274
633 287 620T300 589Q300 570 287 558T256 545Q237 545 225 557Z" />
<glyph unicode="&#xf0;" glyph-name="eth" horiz-adv-x="484" d="M444 246T444 203Q444 161 429 123T385 57Q357 29 320 13T242 -4Q201 -4 164 12T99 57Q71 85 56 123T40 203Q40 245 55 283T99 350Q126 379 163 395T242 411Q256 411 281 406L230 529L138 509L126
564L208 582L173 665H269L296 600L383 619L395 564L318 548L427 288Q444 246 444 203ZM338 136T347 157T356 203Q356 227 347 248T323 286Q308 302 287 311T242 320Q195 320 161 286Q146 270 137 249T128 203Q128 179 137 158T161 121Q195 87 242 87Q266 87 287
96T323 121Q338 136 347 157Z" />
<glyph unicode="&#xf1;" glyph-name="ntilde" horiz-adv-x="487" d="M359 0V300Q359 345 326 378Q294 410 248 410Q203 410 170 377Q155 362 146 342T137 300V0H50V488H137V447Q156 470 187 485T248 500Q288 500 324 485T389 441Q416 414 431 378T447 300V0H359ZM401
620Q379 585 356 569T306 552Q289 552 273 558T235 575Q217 584 205 588T181 594Q161 594 142 561L138 552L93 593Q104 613 120 628Q146 655 180 655Q200 655 217 649T261 630Q280 620 290 617T310 614Q324 615 335 625T362 657L401 620Z" />
<glyph unicode="&#xf2;" glyph-name="ograve" horiz-adv-x="588" d="M242 -5T196 15T115 70Q80 105 60 151T40 248Q40 300 60 347T115 429Q150 464 196 483T293 503Q345 503 392 484T474 429Q509 394 528 347T548 248Q548 197 529 151T474 70Q439 35 392 15T293
-5Q242 -5 196 15ZM226 414T178 366Q155 343 142 312T129 248Q129 215 142 185T178 132Q201 109 230 96T293 83Q326 83 357 96T410 132Q432 155 445 185T458 248Q458 281 445 312T410 366Q388 389 358 401T293 414Q226 414 178 366ZM335 552H268L220 690H299L335
552Z" />
<glyph unicode="&#xf3;" glyph-name="oacute" horiz-adv-x="588" d="M242 -5T196 15T115 70Q80 105 60 151T40 248Q40 300 60 347T115 429Q150 464 196 483T293 503Q345 503 392 484T474 429Q509 394 528 347T548 248Q548 197 529 151T474 70Q439 35 392 15T293
-5Q242 -5 196 15ZM226 414T178 366Q155 343 142 312T129 248Q129 215 142 185T178 132Q201 109 230 96T293 83Q326 83 357 96T410 132Q432 155 445 185T458 248Q458 281 445 312T410 366Q388 389 358 401T293 414Q226 414 178 366ZM319 552H252L289 690H367L319
552Z" />
<glyph unicode="&#xf4;" glyph-name="ocircumflex" horiz-adv-x="588" d="M242 -5T196 15T115 70Q80 105 60 151T40 248Q40 300 60 347T115 429Q150 464 196 483T293 503Q345 503 392 484T474 429Q509 394 528 347T548 248Q548 197 529 151T474 70Q439 35 392
15T293 -5Q242 -5 196 15ZM226 414T178 366Q155 343 142 312T129 248Q129 215 142 185T178 132Q201 109 230 96T293 83Q326 83 357 96T410 132Q432 155 445 185T458 248Q458 281 445 312T410 366Q388 389 358 401T293 414Q226 414 178 366ZM293 598L242 548H161L294
679L421 548H342L293 598Z" />
<glyph unicode="&#xf5;" glyph-name="otilde" horiz-adv-x="588" d="M242 -5T196 15T115 70Q80 105 60 151T40 248Q40 300 60 347T115 429Q150 464 196 483T293 503Q345 503 392 484T474 429Q509 394 528 347T548 248Q548 197 529 151T474 70Q439 35 392 15T293
-5Q242 -5 196 15ZM226 414T178 366Q155 343 142 312T129 248Q129 215 142 185T178 132Q201 109 230 96T293 83Q326 83 357 96T410 132Q432 155 445 185T458 248Q458 281 445 312T410 366Q388 389 358 401T293 414Q226 414 178 366ZM450 623Q428 588 405 572T355
555Q338 555 322 561T284 578Q266 587 254 591T230 597Q210 597 191 564L187 555L142 596Q153 616 169 631Q195 658 229 658Q249 658 266 652T310 633Q329 623 339 620T359 617Q373 618 384 628T411 660L450 623Z" />
<glyph unicode="&#xf6;" glyph-name="odieresis" horiz-adv-x="588" d="M242 -5T196 15T115 70Q80 105 60 151T40 248Q40 300 60 347T115 429Q150 464 196 483T293 503Q345 503 392 484T474 429Q509 394 528 347T548 248Q548 197 529 151T474 70Q439 35 392 15T293
-5Q242 -5 196 15ZM226 414T178 366Q155 343 142 312T129 248Q129 215 142 185T178 132Q201 109 230 96T293 83Q326 83 357 96T410 132Q432 155 445 185T458 248Q458 281 445 312T410 366Q388 389 358 401T293 414Q226 414 178 366ZM188 548T176 560T163 592Q163
610 175 623T207 636Q225 636 238 623T251 592Q251 573 238 561T207 548Q188 548 176 560ZM360 548T348 560T335 592Q335 610 347 623T379 636Q397 636 410 623T423 592Q423 573 410 561T379 548Q360 548 348 560Z" />
<glyph unicode="&#xf7;" glyph-name="divide" horiz-adv-x="549" d="M252 363T236 378T220 416Q220 439 236 454T274 470Q297 470 313 455T329 416Q329 394 313 379T274 363Q252 363 236 378ZM40 237V325H509V237H40ZM252 94T236 109T220 148Q220 170 236 185T274
201Q297 201 313 186T329 148Q329 125 313 110T274 94Q252 94 236 109Z" />
<glyph unicode="&#xf8;" glyph-name="oslash" horiz-adv-x="588" d="M509 394T528 347T548 248Q548 197 529 151T474 70Q439 35 392 15T293 -5Q248 -5 207 10L158 -83H78L145 44Q130 55 115 70Q80 105 60 151T40 248Q40 300 60 347T115 429Q150 464 196 483T293
503Q338 503 379 488L429 583H509L442 456Q460 443 474 429Q509 394 528 347ZM187 124L337 408Q316 414 293 414Q226 414 178 366Q155 343 142 312T129 248Q129 215 142 185T178 132L187 124ZM432 155T445 185T458 248Q458 281 445 312T410 366L400 376L249 89Q270
83 293 83Q326 83 357 96T410 132Q432 155 445 185Z" />
<glyph unicode="&#xf9;" glyph-name="ugrave" horiz-adv-x="487" d="M350 3V45Q330 24 300 10T239 -4Q199 -4 163 11T98 55Q71 83 56 119T40 197V500H128V197Q128 151 161 118Q194 85 239 85Q260 85 281 94T317 118Q350 151 350 197V500H437V3H350ZM281 549H214L166
687H245L281 549Z" />
<glyph unicode="&#xfa;" glyph-name="uacute" horiz-adv-x="487" d="M350 3V45Q330 24 300 10T239 -4Q199 -4 163 11T98 55Q71 83 56 119T40 197V500H128V197Q128 151 161 118Q194 85 239 85Q260 85 281 94T317 118Q350 151 350 197V500H437V3H350ZM265 549H198L235
687H313L265 549Z" />
<glyph unicode="&#xfb;" glyph-name="ucircumflex" horiz-adv-x="487" d="M350 3V45Q330 24 300 10T239 -4Q199 -4 163 11T98 55Q71 83 56 119T40 197V500H128V197Q128 151 161 118Q194 85 239 85Q260 85 281 94T317 118Q350 151 350 197V500H437V3H350ZM239 595L188
545H107L240 676L367 545H288L239 595Z" />
<glyph unicode="&#xfc;" glyph-name="udieresis" horiz-adv-x="487" d="M350 3V45Q330 24 300 10T239 -4Q199 -4 163 11T98 55Q71 83 56 119T40 197V500H128V197Q128 151 161 118Q194 85 239 85Q260 85 281 94T317 118Q350 151 350 197V500H437V3H350ZM134 545T122
557T109 589Q109 607 121 620T153 633Q171 633 184 620T197 589Q197 570 184 558T153 545Q134 545 122 557ZM306 545T294 557T281 589Q281 607 293 620T325 633Q343 633 356 620T369 589Q369 570 356 558T325 545Q306 545 294 557Z" />
<glyph unicode="&#xfd;" glyph-name="yacute" horiz-adv-x="524" d="M200 -213T152 -184T67 -100L145 -55Q166 -88 195 -105T257 -123Q310 -123 349 -84Q367 -66 376 -42T386 9V44Q363 20 328 6T257 -9Q213 -9 174 7T105 54Q74 84 57 123T40 207V500H128V213Q128
178 145 148T192 99T257 81Q292 81 322 98T369 146T386 213V500H474V9Q474 -36 458 -77T411 -148Q380 -179 341 -196T257 -213Q200 -213 152 -184ZM288 549H221L258 687H336L288 549Z" />
<glyph unicode="&#xfe;" glyph-name="thorn" horiz-adv-x="595" d="M246 -9T208 9T139 68V-154H50V644H139V418Q170 456 213 479T303 502Q354 502 400 483T481 427Q516 391 535 345T555 246Q555 194 536 148T481 66Q447 31 401 11T303 -9Q246 -9 208 9ZM270 411T240
399T188 363Q166 340 153 310T140 246Q140 213 153 183T188 130Q210 107 240 94T303 81Q336 81 366 94T418 130Q440 153 452 183T465 246Q465 279 453 309T418 363Q396 386 366 398T303 411Q270 411 240 399Z" />
<glyph unicode="&#xff;" glyph-name="ydieresis" horiz-adv-x="524" d="M200 -213T152 -184T67 -100L145 -55Q166 -88 195 -105T257 -123Q310 -123 349 -84Q367 -66 376 -42T386 9V44Q363 20 328 6T257 -9Q213 -9 174 7T105 54Q74 84 57 123T40 207V500H128V213Q128
178 145 148T192 99T257 81Q292 81 322 98T369 146T386 213V500H474V9Q474 -36 458 -77T411 -148Q380 -179 341 -196T257 -213Q200 -213 152 -184ZM157 545T145 557T132 589Q132 607 144 620T176 633Q194 633 207 620T220 589Q220 570 207 558T176 545Q157 545
145 557ZM329 545T317 557T304 589Q304 607 316 620T348 633Q366 633 379 620T392 589Q392 570 379 558T348 545Q329 545 317 557Z" />
<glyph unicode="&#x2013;" glyph-name="endash" horiz-adv-x="549" d="M40 242V314H509V242H40Z" />
<glyph unicode="&#x2014;" glyph-name="emdash" horiz-adv-x="703" d="M40 242V314H663V242H40Z" />
<glyph unicode="&#x2018;" glyph-name="quoteleft" horiz-adv-x="178" d="M105 479L40 688H123L178 479H105Z" />
<glyph unicode="&#x2019;" glyph-name="quoteright" horiz-adv-x="178" d="M113 479H40L95 688H178L113 479Z" />
<glyph unicode="&#x201a;" glyph-name="quotesinglbase" horiz-adv-x="211" d="M110 -102H37L92 107H175L110 -102Z" />
<glyph unicode="&#x201c;" glyph-name="quotedblleft" horiz-adv-x="333" d="M120 479L40 688H130L200 479H120ZM253 479L182 688H272L333 479H253Z" />
<glyph unicode="&#x201d;" glyph-name="quotedblright" horiz-adv-x="333" d="M61 688H151L80 479H0L61 688ZM203 688H293L213 479H133L203 688Z" />
<glyph unicode="&#x201e;" glyph-name="quotedblbase" horiz-adv-x="373" d="M121 -102H40L101 107H191L121 -102ZM263 -102H182L243 107H333L263 -102Z" />
<glyph unicode="&#x2022;" glyph-name="bullet" horiz-adv-x="365" d="M122 158T81 199Q40 242 40 300Q40 328 51 354T81 401Q123 443 182 443Q210 443 237 432T284 401Q303 381 314 355T325 300Q325 243 284 199Q265 180 238 169T182 158Q122 158 81 199Z" />
<glyph unicode="&#x2039;" glyph-name="guilsinglleft" horiz-adv-x="365" d="M220 87L36 278L211 471H329L155 280L341 87H220Z" />
<glyph unicode="&#x203a;" glyph-name="guilsinglright" horiz-adv-x="365" d="M145 87H24L210 280L36 471H154L329 278L145 87Z" />
</font>
</defs>
</svg>
